# xmcd
#
# Track frame offsets: 
#        150
#        10870
#        29910
#        46232
#        67060
#        82430
#        96690
#        115152
#        127827
#        144377
#        161512
#        177640
#        195642
#        214835
#        232192
#
# Disc length: 3305 seconds
#
# Revision: 6
# Processed by: cddbd v1.5.2PL0 Copyright (c) Steve Scherf et al.
# Submitted via: ExactAudioCopy v0.99pb5
#
DISCID=e60ce70f
DTITLE=Laura Fygi - Watch what Happens when Laura Fygi meets Michel Le
DTITLE=grand
DYEAR=1997
DGENRE=Jazz
TTITLE0=Where's the love
TTITLE1=The first time
TTITLE2=You had to be there
TTITLE3=The summer knows
TTITLE4=Watch what happens
TTITLE5=Et si demain
TTITLE6=The windmills of your mind
TTITLE7=I will wait for you
TTITLE8=Once upon a summertime
TTITLE9=What are you doing the rest of your life
TTITLE10=How do you keep the music playing
TTITLE11=Summer me, winter me
TTITLE12=The way he makes me feel
TTITLE13=Ask yourself why
TTITLE14=Rachel
EXTD=
EXTT0=
EXTT1=
EXTT2=
EXTT3=
EXTT4=
EXTT5=
EXTT6=
EXTT7=
EXTT8=
EXTT9=
EXTT10=
EXTT11=
EXTT12=
EXTT13=
EXTT14=
PLAYORDER=
